<svg width="201" height="245" viewBox="0 0 201 245" fill="none" xmlns="http://www.w3.org/2000/svg">
<rect x="100.379" y="144.251" width="100" height="100" transform="rotate(-180 100.379 144.251)" fill="#2C6269"/>
<path fill-rule="evenodd" clip-rule="evenodd" d="M100.379 244.251C155.607 244.251 200.379 199.479 200.379 144.251C200.379 89.0223 155.607 44.2507 100.379 44.2507C45.1503 44.2507 0.378784 89.0223 0.378784 144.251C0.378784 199.479 45.1503 244.251 100.379 244.251ZM100.379 177.251C118.604 177.251 133.379 162.476 133.379 144.251C133.379 126.025 118.604 111.251 100.379 111.251C82.1534 111.251 67.3788 126.025 67.3788 144.251C67.3788 162.476 82.1534 177.251 100.379 177.251Z" fill="#014E56"/>
<path fill-rule="evenodd" clip-rule="evenodd" d="M100.379 144.251H0.378784V148.251H100.379V144.251ZM100.379 152.251H0.378784V156.251H100.379V152.251ZM0.378784 160.251H100.379V164.251H0.378784V160.251ZM100.379 168.251H0.378784V172.251H100.379V168.251ZM0.378784 176.251H100.379V180.251H0.378784V176.251ZM100.379 184.251H0.378784V188.251H100.379V184.251Z" fill="#79C8C7"/>
<path fill-rule="evenodd" clip-rule="evenodd" d="M0.378784 0.250732H4.37878V4.25073H0.378784V0.250732ZM11.3788 0.250732H7.37878V4.25073H11.3788V0.250732ZM11.3788 8.25073H7.37878V12.2507H11.3788V8.25073ZM7.37878 16.2507H11.3788V20.2507H7.37878V16.2507ZM11.3788 24.2507H7.37878V28.2507H11.3788V24.2507ZM7.37878 32.2507H11.3788V36.2507H7.37878V32.2507ZM11.3788 40.2507H7.37878V44.2507H11.3788V40.2507ZM14.3788 0.250732H18.3788V4.25073H14.3788V0.250732ZM14.3788 8.25073H18.3788V12.2507H14.3788V8.25073ZM18.3788 16.2507H14.3788V20.2507H18.3788V16.2507ZM14.3788 24.2507H18.3788V28.2507H14.3788V24.2507ZM18.3788 32.2507H14.3788V36.2507H18.3788V32.2507ZM14.3788 40.2507H18.3788V44.2507H14.3788V40.2507ZM0.378784 8.25073H4.37878V12.2507H0.378784V8.25073ZM21.3788 0.250732H25.3788V4.25073H21.3788V0.250732ZM21.3788 8.25073H25.3788V12.2507H21.3788V8.25073ZM25.3788 16.2507H21.3788V20.2507H25.3788V16.2507ZM21.3788 24.2507H25.3788V28.2507H21.3788V24.2507ZM25.3788 32.2507H21.3788V36.2507H25.3788V32.2507ZM21.3788 40.2507H25.3788V44.2507H21.3788V40.2507ZM0.378784 16.2507H4.37878V20.2507H0.378784V16.2507ZM28.3788 0.250732H32.3788V4.25073H28.3788V0.250732ZM28.3788 8.25073H32.3788V12.2507H28.3788V8.25073ZM32.3788 16.2507H28.3788V20.2507H32.3788V16.2507ZM28.3788 24.2507H32.3788V28.2507H28.3788V24.2507ZM32.3788 32.2507H28.3788V36.2507H32.3788V32.2507ZM28.3788 40.2507H32.3788V44.2507H28.3788V40.2507ZM0.378784 24.2507H4.37878V28.2507H0.378784V24.2507ZM35.3788 0.250732H39.3788V4.25073H35.3788V0.250732ZM35.3788 8.25073H39.3788V12.2507H35.3788V8.25073ZM39.3788 16.2507H35.3788V20.2507H39.3788V16.2507ZM35.3788 24.2507H39.3788V28.2507H35.3788V24.2507ZM39.3788 32.2507H35.3788V36.2507H39.3788V32.2507ZM35.3788 40.2507H39.3788V44.2507H35.3788V40.2507ZM0.378784 32.2507H4.37878V36.2507H0.378784V32.2507ZM42.3788 0.250732H46.3788V4.25073H42.3788V0.250732ZM42.3788 8.25073H46.3788V12.2507H42.3788V8.25073ZM46.3788 16.2507H42.3788V20.2507H46.3788V16.2507ZM42.3788 24.2507H46.3788V28.2507H42.3788V24.2507ZM46.3788 32.2507H42.3788V36.2507H46.3788V32.2507ZM42.3788 40.2507H46.3788V44.2507H42.3788V40.2507ZM0.378784 40.2507H4.37878V44.2507H0.378784V40.2507ZM49.3788 0.250732H53.3788V4.25073H49.3788V0.250732ZM49.3788 8.25073H53.3788V12.2507H49.3788V8.25073ZM53.3788 16.2507H49.3788V20.2507H53.3788V16.2507ZM49.3788 24.2507H53.3788V28.2507H49.3788V24.2507ZM53.3788 32.2507H49.3788V36.2507H53.3788V32.2507ZM49.3788 40.2507H53.3788V44.2507H49.3788V40.2507Z" fill="#79C8C7"/>
</svg>
