<svg width="201" height="201" viewBox="0 0 201 201" fill="none" xmlns="http://www.w3.org/2000/svg">
<rect width="100" height="100" transform="matrix(1 0 0 -1 100.532 100.162)" fill="#2C6269"/>
<path fill-rule="evenodd" clip-rule="evenodd" d="M100.532 200.162C45.3038 200.162 0.532227 155.391 0.532227 100.162C0.532227 44.9336 45.3038 0.162109 100.532 0.162109C155.761 0.162109 200.532 44.9336 200.532 100.162C200.532 155.391 155.761 200.162 100.532 200.162ZM100.532 133.162C82.3068 133.162 67.5322 118.388 67.5322 100.162C67.5322 81.9367 82.3068 67.1621 100.532 67.1621C118.758 67.1621 133.532 81.9367 133.532 100.162C133.532 118.388 118.758 133.162 100.532 133.162Z" fill="#012F34"/>
<path fill-rule="evenodd" clip-rule="evenodd" d="M100.532 56.1621H200.532V60.1621H100.532V56.1621ZM100.532 64.1621H200.532V68.1621H100.532V64.1621ZM200.532 72.1621H100.532V76.1621H200.532V72.1621ZM100.532 80.1621H200.532V84.1621H100.532V80.1621ZM200.532 88.1621H100.532V92.1621H200.532V88.1621ZM100.532 96.1621H200.532V100.162H100.532V96.1621Z" fill="#79C8C7"/>
<path fill-rule="evenodd" clip-rule="evenodd" d="M200.532 100.162H196.532V104.162H200.532V100.162ZM189.532 100.162H193.532V104.162H189.532V100.162ZM189.532 108.162H193.532V112.162H189.532V108.162ZM193.532 116.162H189.532V120.162H193.532V116.162ZM189.532 124.162H193.532V128.162H189.532V124.162ZM193.532 132.162H189.532V136.162H193.532V132.162ZM189.532 140.162H193.532V144.162H189.532V140.162ZM186.532 100.162H182.532V104.162H186.532V100.162ZM186.532 108.162H182.532V112.162H186.532V108.162ZM182.532 116.162H186.532V120.162H182.532V116.162ZM186.532 124.162H182.532V128.162H186.532V124.162ZM182.532 132.162H186.532V136.162H182.532V132.162ZM186.532 140.162H182.532V144.162H186.532V140.162ZM200.532 108.162H196.532V112.162H200.532V108.162ZM179.532 100.162H175.532V104.162H179.532V100.162ZM179.532 108.162H175.532V112.162H179.532V108.162ZM175.532 116.162H179.532V120.162H175.532V116.162ZM179.532 124.162H175.532V128.162H179.532V124.162ZM175.532 132.162H179.532V136.162H175.532V132.162ZM179.532 140.162H175.532V144.162H179.532V140.162ZM200.532 116.162H196.532V120.162H200.532V116.162ZM172.532 100.162H168.532V104.162H172.532V100.162ZM172.532 108.162H168.532V112.162H172.532V108.162ZM168.532 116.162H172.532V120.162H168.532V116.162ZM172.532 124.162H168.532V128.162H172.532V124.162ZM168.532 132.162H172.532V136.162H168.532V132.162ZM172.532 140.162H168.532V144.162H172.532V140.162ZM200.532 124.162H196.532V128.162H200.532V124.162ZM165.532 100.162H161.532V104.162H165.532V100.162ZM165.532 108.162H161.532V112.162H165.532V108.162ZM161.532 116.162H165.532V120.162H161.532V116.162ZM165.532 124.162H161.532V128.162H165.532V124.162ZM161.532 132.162H165.532V136.162H161.532V132.162ZM165.532 140.162H161.532V144.162H165.532V140.162ZM200.532 132.162H196.532V136.162H200.532V132.162ZM158.532 100.162H154.532V104.162H158.532V100.162ZM158.532 108.162H154.532V112.162H158.532V108.162ZM154.532 116.162H158.532V120.162H154.532V116.162ZM158.532 124.162H154.532V128.162H158.532V124.162ZM154.532 132.162H158.532V136.162H154.532V132.162ZM158.532 140.162H154.532V144.162H158.532V140.162ZM200.532 140.162H196.532V144.162H200.532V140.162ZM151.532 100.162H147.532V104.162H151.532V100.162ZM151.532 108.162H147.532V112.162H151.532V108.162ZM147.532 116.162H151.532V120.162H147.532V116.162ZM151.532 124.162H147.532V128.162H151.532V124.162ZM147.532 132.162H151.532V136.162H147.532V132.162ZM151.532 140.162H147.532V144.162H151.532V140.162Z" fill="#F67E7E"/>
</svg>
